name Walk10.mot
datacolumns 19
datarows 22
range 1.39000000 1.41100000
endheader

                time	   L_ground_force_vx	   L_ground_force_vy	   L_ground_force_vz	   L_ground_force_px	   L_ground_force_py	   L_ground_force_pz	   R_ground_force_vx	   R_ground_force_vy	   R_ground_force_vz	   R_ground_force_px	   R_ground_force_py	   R_ground_force_pz	   L_ground_torque_x	   L_ground_torque_y	   L_ground_torque_z	   R_ground_torque_x	   R_ground_torque_y	   R_ground_torque_z	
          1.39000000	          7.84586809	        144.87496244	        -16.69800910	         -0.56388099	          0.00000000	          0.05820479	         -0.00000017	          0.00000243	          0.00000011	          0.00000000	          0.00000000	          0.00000000	          0.00000000	          1.71104299	          0.00000000	          0.00000000	          0.00000001	          0.00000000	
          1.39100000	          7.20255868	        157.92265829	        -17.32752298	         -0.55404413	          0.00000000	          0.05473103	         -0.00000018	          0.00000247	          0.00000011	          0.00000000	          0.00000000	          0.00000000	          0.00000000	          1.79484436	          0.00000000	          0.00000000	          0.00000002	          0.00000000	
          1.39200000	          6.49083904	        171.16612982	        -17.96827835	         -0.54420831	          0.00000000	          0.05126152	         -0.00000019	          0.00000251	          0.00000012	          0.00000000	          0.00000000	          0.00000000	          0.00000000	          1.88082652	          0.00000000	          0.00000000	          0.00000002	          0.00000000	
          1.39300000	          5.70800182	        184.58023993	        -18.61872937	         -0.53440162	          0.00000000	          0.04780643	         -0.00000019	          0.00000255	          0.00000012	          0.00000000	          0.00000000	          0.00000000	          0.00000000	          1.96885174	          0.00000000	          0.00000000	          0.00000002	          0.00000000	
          1.39400000	          4.85152016	        198.13851225	        -19.27716258	         -0.52465175	          0.00000000	          0.04437574	         -0.00000020	          0.00000257	          0.00000012	          0.00000000	          0.00000000	          0.00000000	          0.00000000	          2.05876287	          0.00000000	          0.00000000	          0.00000002	          0.00000000	
          1.39500000	          3.91908338	        211.81322334	        -19.94169026	         -0.51498564	          0.00000000	          0.04097908	         -0.00000021	          0.00000259	          0.00000012	          0.00000000	          0.00000000	          0.00000000	          0.00000000	          2.15038226	          0.00000000	          0.00000000	          0.00000002	          0.00000000	
          1.39600000	          2.90863915	        225.57566351	        -20.61024316	         -0.50542893	          0.00000000	          0.03762556	         -0.00000022	          0.00000260	          0.00000012	          0.00000000	          0.00000000	          0.00000000	          0.00000000	          2.24351095	          0.00000000	          0.00000000	          0.00000002	          0.00000000	
          1.39700000	          1.81844438	        239.39659069	        -21.28056216	         -0.49600561	          0.00000000	          0.03432363	         -0.00000023	          0.00000260	          0.00000012	          0.00000000	          0.00000000	          0.00000000	          0.00000000	          2.33792815	          0.00000000	          0.00000000	          0.00000002	          0.00000000	
          1.39800000	          0.64712625	        253.24685435	        -21.95018942	         -0.48673768	          0.00000000	          0.03108101	         -0.00000023	          0.00000259	          0.00000012	          0.00000000	          0.00000000	          0.00000000	          0.00000000	          2.43339109	          0.00000000	          0.00000000	          0.00000003	          0.00000000	
          1.39900000	         -0.60624819	        267.09811204	        -22.61646192	         -0.47764503	          0.00000000	          0.02790459	         -0.00000024	          0.00000257	          0.00000011	          0.00000000	          0.00000000	          0.00000000	          0.00000000	          2.52963505	          0.00000000	          0.00000000	          0.00000003	          0.00000000	
          1.40000000	         -1.94209884	        280.92352227	        -23.27651173	         -0.46874534	          0.00000000	          0.02480042	         -0.00000025	          0.00000253	          0.00000011	          0.00000000	          0.00000000	          0.00000000	          0.00000000	          2.62637360	          0.00000000	          0.00000000	          0.00000003	          0.00000000	
          1.40100000	         -3.36026444	        294.69829712	        -23.92727768	         -0.46005411	          0.00000000	          0.02177375	         -0.00000025	          0.00000248	          0.00000011	          0.00000000	          0.00000000	          0.00000000	          0.00000000	          2.72329906	          0.00000000	          0.00000000	          0.00000003	          0.00000000	
          1.40200000	         -4.85994902	        308.40003887	        -24.56553094	         -0.45158474	          0.00000000	          0.01882906	         -0.00000026	          0.00000242	          0.00000011	          0.00000000	          0.00000000	          0.00000000	          0.00000000	          2.82008323	          0.00000000	          0.00000000	          0.00000003	          0.00000000	
          1.40300000	         -6.43968985	        322.00884546	        -25.18791413	         -0.44334864	          0.00000000	          0.01597005	         -0.00000027	          0.00000233	          0.00000010	          0.00000000	          0.00000000	          0.00000000	          0.00000000	          2.91637885	          0.00000000	          0.00000000	          0.00000003	          0.00000000	
          1.40400000	         -8.09734958	        335.50722305	        -25.79099036	         -0.43535532	          0.00000000	          0.01319977	         -0.00000027	          0.00000224	          0.00000010	          0.00000000	          0.00000000	          0.00000000	          0.00000000	          3.01182162	          0.00000000	          0.00000000	          0.00000004	          0.00000000	
          1.40500000	         -9.83013022	        348.87987212	        -26.37129692	         -0.42761254	          0.00000000	          0.01052060	         -0.00000028	          0.00000212	          0.00000009	          0.00000000	          0.00000000	          0.00000000	          0.00000000	          3.10603306	          0.00000000	          0.00000000	          0.00000004	          0.00000000	
          1.40600000	        -11.63460401	        362.11341697	        -26.92539822	         -0.42012643	          0.00000000	          0.00793434	         -0.00000028	          0.00000199	          0.00000008	          0.00000000	          0.00000000	          0.00000000	          0.00000000	          3.19862391	          0.00000000	          0.00000000	          0.00000004	          0.00000000	
          1.40700000	        -13.50675546	        375.19613503	        -27.44993389	         -0.41290164	          0.00000000	          0.00544225	         -0.00000028	          0.00000183	          0.00000007	         -0.00000000	          0.00000000	         -0.00000000	          0.00000000	          3.28919812	          0.00000000	          0.00000000	          0.00000004	          0.00000000	
          1.40800000	        -15.44203006	        388.11772287	        -27.94165948	         -0.40594143	          0.00000000	          0.00304508	         -0.00000029	          0.00000165	          0.00000006	         -0.00000000	          0.00000000	         -0.00000000	          0.00000000	          3.37735695	          0.00000000	          0.00000000	          0.00000004	          0.00000000	
          1.40900000	        -17.43538740	        400.86911589	        -28.39747941	         -0.39924778	          0.00000000	          0.00074314	         -0.00000029	          0.00000145	          0.00000005	         -0.00000000	          0.00000000	         -0.00000000	          0.00000000	          3.46270295	          0.00000000	          0.00000000	          0.00000005	          0.00000000	
          1.41000000	        -19.48135809	        413.44236277	        -28.81447291	         -0.39282152	          0.00000000	         -0.00146367	         -0.00000029	          0.00000122	          0.00000004	         -0.00000000	          0.00000000	         -0.00000000	          0.00000000	          3.54484366	          0.00000000	          0.00000000	          0.00000005	          0.00000000	
          1.41100000	        -21.57410548	        425.83054498	        -29.18991484	         -0.38666238	          0.00000000	         -0.00357584	         -0.00000029	          0.00000097	          0.00000003	         -0.00000000	          0.00000000	         -0.00000000	          0.00000000	          3.62339492	          0.00000000	          0.00000000	          0.00000005	          0.00000000	
